<svg viewBox="0 0 15.9502 18" xmlns="http://www.w3.org/2000/svg" xmlns:xlink="http://www.w3.org/1999/xlink" width="15.950195" height="18.000000" fill="none" customFrame="#000000">
	<path id="Symbol" d="M12.475 5.625L15.85 5.625L15.85 15.1875C15.85 15.9609 15.5688 16.6172 15.0063 17.1562C14.4672 17.7188 13.8109 18 13.0375 18L2.9125 18C2.13906 18 1.47109 17.7188 0.908594 17.1562C0.369531 16.6172 0.0999999 15.9609 0.0999999 15.1875L0.0999999 5.625L3.475 5.625L3.475 4.5C3.475 3.25781 3.90859 2.20312 4.77578 1.33594C5.66641 0.445312 6.73281 0 7.975 0C9.21719 0 10.2719 0.445312 11.1391 1.33594C12.0297 2.20312 12.475 3.25781 12.475 4.5L12.475 5.625ZM5.725 4.5L5.725 5.625L10.225 5.625L10.225 4.5C10.225 3.89062 10.0023 3.36328 9.55703 2.91797C9.11172 2.47266 8.58438 2.25 7.975 2.25C7.36562 2.25 6.83828 2.47266 6.39297 2.91797C5.94766 3.36328 5.725 3.89062 5.725 4.5ZM10.7523 8.47266C10.9164 8.63672 11.1156 8.71875 11.35 8.71875C11.5844 8.71875 11.7836 8.63672 11.9477 8.47266C12.1117 8.30859 12.1938 8.10938 12.1938 7.875C12.1938 7.64062 12.1117 7.44141 11.9477 7.27734C11.7836 7.11328 11.5844 7.03125 11.35 7.03125C11.1156 7.03125 10.9164 7.11328 10.7523 7.27734C10.5883 7.44141 10.5063 7.64062 10.5063 7.875C10.5063 8.10938 10.5883 8.30859 10.7523 8.47266ZM4.00234 8.47266C4.16641 8.63672 4.36562 8.71875 4.6 8.71875C4.83437 8.71875 5.03359 8.63672 5.19766 8.47266C5.36172 8.30859 5.44375 8.10938 5.44375 7.875C5.44375 7.64062 5.36172 7.44141 5.19766 7.27734C5.03359 7.11328 4.83437 7.03125 4.6 7.03125C4.36562 7.03125 4.16641 7.11328 4.00234 7.27734C3.83828 7.44141 3.75625 7.64062 3.75625 7.875C3.75625 8.10938 3.83828 8.30859 4.00234 8.47266Z" fill="rgb(0,0,0)" fill-rule="nonzero" />
</svg>
