<svg width="70.000000" height="70.000000" viewBox="0 0 70 70" fill="none" xmlns="http://www.w3.org/2000/svg" xmlns:xlink="http://www.w3.org/1999/xlink">
	<desc>
			Created with Pixso.
	</desc>
	<defs/>
	<path id="Vector" d="M62.54 40.46C58.25 40.46 56.01 38.24 54.21 36.45C52.56 34.81 51.37 33.63 48.77 33.63C47.97 33.63 47.3 33.74 46.71 33.95C47.33 40.8 41.9 46.75 35 46.75C28.09 46.75 22.66 40.79 23.28 33.95C22.69 33.74 22.02 33.63 21.22 33.63C18.62 33.63 17.43 34.81 15.78 36.45C13.98 38.24 11.74 40.46 7.45 40.46C4.38 40.46 2.2 39.37 0.08 37.38C1.3 55.63 16.48 70 35 70C53.5 70 68.69 55.64 69.91 37.38C67.79 39.36 65.61 40.46 62.54 40.46ZM53.75 43.33C54.66 42.66 55.95 42.85 56.62 43.76L58.13 45.78C58.8 46.69 58.62 47.97 57.71 48.65C56.8 49.32 55.52 49.14 54.84 48.23L53.33 46.2C52.66 45.3 52.84 44.01 53.75 43.33ZM40.8 54.2L43.11 53.29C44.16 52.87 45.35 53.38 45.77 54.43C46.19 55.49 45.67 56.68 44.62 57.1C42.4 57.94 42.21 58.16 41.56 58.16C39.31 58.16 38.71 55.03 40.8 54.2ZM22.61 50.32C23.72 50.08 24.81 50.78 25.06 51.88L25.6 54.34C25.85 55.45 25.15 56.54 24.05 56.79C22.92 57.04 21.84 56.32 21.6 55.23L21.05 52.77C20.81 51.66 21.5 50.57 22.61 50.32ZM12.71 44.09L15.04 43.11C16.08 42.67 17.28 43.16 17.72 44.21C18.16 45.25 17.67 46.45 16.63 46.89C14.41 47.78 14.2 48.03 13.51 48.03C11.28 48.03 10.66 44.95 12.71 44.09Z" fill="#FFFFFF" fill-opacity="1.000000" fill-rule="nonzero"/>
	<path id="Vector" d="M7.45 36.36C10.05 36.36 11.24 35.18 12.89 33.54C14.69 31.75 16.93 29.53 21.22 29.53C22.41 29.53 23.45 29.7 24.36 29.99C28.6 21.03 41.37 20.97 45.63 29.99C46.54 29.7 47.58 29.53 48.77 29.53C53.06 29.53 55.3 31.75 57.1 33.54C58.75 35.18 59.94 36.36 62.54 36.36C66.14 36.36 67.17 33.98 69.85 31.81C68.26 14.03 53.32 0 35 0C16.71 0 1.73 14 0.14 31.82C2.82 33.98 3.84 36.36 7.45 36.36ZM16.34 26.16C15.71 26.16 15.09 25.88 14.69 25.34L13.18 23.31C12.51 22.41 12.7 21.12 13.6 20.44C14.51 19.77 15.8 19.96 16.47 20.87L17.98 22.89C18.99 24.25 18 26.16 16.34 26.16ZM30.51 14.89C28.32 15.72 28.1 15.95 27.45 15.95C26.63 15.95 25.86 15.46 25.54 14.66C25.12 13.61 25.64 12.41 26.69 12L28.99 11.08C30.05 10.66 31.24 11.17 31.66 12.23C32.08 13.28 31.56 14.47 30.51 14.89ZM46.42 18.95C46.27 18.98 46.12 19 45.98 19C45.04 19 44.19 18.35 43.98 17.39L43.43 14.93C43.18 13.83 43.88 12.73 44.99 12.49C46.09 12.24 47.19 12.94 47.43 14.04L47.98 16.5C48.23 17.61 47.53 18.7 46.42 18.95ZM60.03 24.61C59.94 25.68 59.05 26.49 57.99 26.49C57.93 26.49 57.88 26.48 57.82 26.48L55.31 26.27C54.18 26.18 53.34 25.18 53.43 24.05C53.53 22.93 54.52 22.09 55.65 22.18L58.16 22.39C59.29 22.49 60.13 23.48 60.03 24.61Z" fill="#FFFFFF" fill-opacity="1.000000" fill-rule="nonzero"/>
</svg>
