<svg width="43.750000" height="43.750000" viewBox="0 0 43.75 43.75" fill="none" xmlns="http://www.w3.org/2000/svg" xmlns:xlink="http://www.w3.org/1999/xlink">
	<desc>
			Created with Pixso.
	</desc>
	<defs/>
	<path id="Symbol" d="M43.6 30.9C43.79 27.29 43.79 16.45 43.6 12.84C43.4 9.32 42.62 6.2 40.08 3.66C37.54 1.12 34.42 0.34 30.9 0.14C27.29 -0.05 16.45 -0.05 12.84 0.14C9.32 0.34 6.29 1.12 3.66 3.66C1.12 6.2 0.34 9.32 0.14 12.84C-0.05 16.45 -0.05 27.29 0.14 30.9C0.34 34.42 1.12 37.45 3.66 40.08C6.29 42.62 9.32 43.4 12.84 43.6C16.45 43.79 27.29 43.79 30.9 43.6C34.42 43.4 37.54 42.62 40.08 40.08C42.62 37.45 43.4 34.42 43.6 30.9ZM39.8 23.49C39.84 27.01 39.91 32.31 38.91 34.71C38.23 36.66 36.66 38.13 34.81 38.91C32.32 39.91 27 39.84 23.54 39.8C22.93 39.8 22.39 39.79 21.92 39.79C21.43 39.79 20.87 39.8 20.25 39.8C16.73 39.84 11.43 39.91 9.03 38.91C7.07 38.13 5.61 36.66 4.83 34.71C3.83 32.31 3.89 27.01 3.94 23.49C3.94 22.87 3.95 22.31 3.95 21.82C3.95 21.35 3.94 20.81 3.94 20.2C3.9 16.74 3.83 11.42 4.83 8.93C5.61 7.08 7.07 5.61 9.03 4.83C11.43 3.83 16.73 3.9 20.25 3.94C20.87 3.94 21.43 3.95 21.92 3.95C22.39 3.95 22.93 3.94 23.54 3.94C27 3.9 32.32 3.83 34.81 4.83C36.66 5.51 38.13 7.08 38.91 8.93C39.91 11.42 39.84 16.74 39.8 20.2C39.8 20.81 39.79 21.35 39.79 21.82C39.79 22.31 39.8 22.87 39.8 23.49ZM33.54 12.84C35 12.84 36.18 11.66 36.18 10.2C36.18 8.74 35 7.56 33.54 7.56C32.07 7.56 30.9 8.74 30.9 10.2C30.9 11.66 32.07 12.84 33.54 12.84ZM33.15 21.82C33.15 15.67 28.07 10.59 21.92 10.59C15.67 10.59 10.69 15.67 10.69 21.82C10.69 28.07 15.67 33.05 21.92 33.05C28.07 33.05 33.15 28.07 33.15 21.82ZM29.15 21.82C29.15 25.92 25.92 29.15 21.92 29.15C17.91 29.15 14.59 25.92 14.59 21.82C14.59 17.82 17.82 14.59 21.92 14.59C25.92 14.59 29.15 17.82 29.15 21.82Z" fill="#FFFFFF" fill-opacity="1.000000" fill-rule="evenodd"/>
</svg>
