<svg width="19.125000" height="14.888672" viewBox="0 0 19.125 14.8887" fill="none" xmlns="http://www.w3.org/2000/svg" xmlns:xlink="http://www.w3.org/1999/xlink">
	<desc>
			Created with Pixso.
	</desc>
	<defs/>
	<path id="Symbol" d="M19.12 6.65L19.12 6.12C19.12 5.9 19.04 5.71 18.89 5.55C18.73 5.4 18.54 5.32 18.32 5.32L16.1 5.32L12.55 0.44C12.37 0.2 12.14 0.05 11.85 0.01Q11.66 -0.02 11.48 0.01Q11.26 0.06 11.05 0.21C10.81 0.38 10.66 0.62 10.62 0.91Q10.59 1.1 10.63 1.27Q10.67 1.5 10.82 1.7L13.48 5.32L5.64 5.32L8.3 1.7C8.47 1.46 8.54 1.19 8.5 0.91C8.45 0.62 8.31 0.38 8.06 0.21Q7.86 0.06 7.64 0.01Q7.46 -0.02 7.27 0.01C6.98 0.05 6.75 0.2 6.57 0.44L3.02 5.32L0.79 5.32Q0.62 5.32 0.48 5.38Q0.34 5.44 0.23 5.55C0.07 5.71 0 5.9 0 6.12L0 6.65C0 6.87 0.07 7.06 0.23 7.21C0.38 7.37 0.57 7.45 0.79 7.45L1.06 7.45L1.92 13.52C1.99 13.92 2.16 14.24 2.45 14.49Q2.71 14.7 3 14.8Q3.25 14.88 3.51 14.88L15.6 14.88C15.87 14.88 16.11 14.82 16.33 14.68C16.57 14.57 16.76 14.41 16.9 14.19C17.05 13.99 17.15 13.77 17.19 13.52L18.06 7.45L18.32 7.45C18.54 7.45 18.73 7.37 18.89 7.21C19.04 7.06 19.12 6.87 19.12 6.65ZM6.64 8.24L6.64 11.96C6.64 12.18 6.56 12.37 6.4 12.53C6.25 12.68 6.06 12.76 5.84 12.76C5.62 12.76 5.43 12.68 5.27 12.53C5.12 12.37 5.04 12.18 5.04 11.96L5.04 8.24C5.04 8.02 5.12 7.83 5.27 7.68C5.43 7.52 5.62 7.45 5.84 7.45C6.06 7.45 6.25 7.52 6.4 7.68C6.56 7.83 6.64 8.02 6.64 8.24ZM10.35 8.24L10.35 11.96C10.35 12.18 10.28 12.37 10.12 12.53C9.97 12.68 9.78 12.76 9.56 12.76C9.34 12.76 9.15 12.68 8.99 12.53C8.84 12.37 8.76 12.18 8.76 11.96L8.76 8.24C8.76 8.02 8.84 7.83 8.99 7.68C9.15 7.52 9.34 7.45 9.56 7.45C9.78 7.45 9.97 7.52 10.12 7.68C10.28 7.83 10.35 8.02 10.35 8.24ZM14.07 8.24L14.07 11.96C14.07 12.18 14 12.37 13.84 12.53C13.69 12.68 13.5 12.76 13.28 12.76C13.05 12.76 12.87 12.68 12.71 12.53C12.56 12.37 12.48 12.18 12.48 11.96L12.48 8.24C12.48 8.02 12.56 7.83 12.71 7.68C12.87 7.52 13.05 7.45 13.28 7.45C13.5 7.45 13.69 7.52 13.84 7.68C14 7.83 14.07 8.02 14.07 8.24Z" fill="#00A149" fill-opacity="1.000000" fill-rule="evenodd"/>
</svg>
