<svg width="10.625000" height="6.839844" viewBox="0 0 10.625 6.83984" fill="none" xmlns="http://www.w3.org/2000/svg" xmlns:xlink="http://www.w3.org/1999/xlink">
	<desc>
			Created with Pixso.
	</desc>
	<defs/>
	<path id="Symbol" d="M0.23 2.09L4.74 6.6C4.9 6.76 5.09 6.83 5.31 6.83C5.53 6.83 5.72 6.76 5.87 6.6L10.39 2.09C10.54 1.93 10.62 1.74 10.62 1.52C10.62 1.3 10.54 1.11 10.39 0.96L9.62 0.23C9.47 0.07 9.28 0 9.06 0C8.84 0 8.65 0.07 8.5 0.23L5.31 3.41L2.12 0.23C1.97 0.07 1.78 0 1.56 0Q1.38 9.53e-7 1.24 0.06Q1.1 0.12 0.99 0.23L0.23 0.96C0.07 1.11 0 1.3 0 1.52C0 1.74 0.07 1.93 0.23 2.09Z" fill="#5C5C5B" fill-opacity="1.000000" fill-rule="evenodd"/>
</svg>
